<svg width="30" height="30" viewBox="0 0 30 30" fill="none" xmlns="http://www.w3.org/2000/svg">
<path d="M15 8.25C15 10.0402 14.2888 11.7571 13.023 13.023C11.7571 14.2888 10.0402 15 8.25 15C6.45979 15 4.7429 14.2888 3.47703 13.023C2.21116 11.7571 1.5 10.0402 1.5 8.25C1.5 6.45979 2.21116 4.7429 3.47703 3.47703C4.7429 2.21116 6.45979 1.5 8.25 1.5C10.0402 1.5 11.7571 2.21116 13.023 3.47703C14.2888 4.7429 15 6.45979 15 8.25ZM9 5.25C9 5.05109 8.92098 4.86032 8.78033 4.71967C8.63968 4.57902 8.44891 4.5 8.25 4.5C8.05109 4.5 7.86032 4.57902 7.71967 4.71967C7.57902 4.86032 7.5 5.05109 7.5 5.25V7.5H5.25C5.05109 7.5 4.86032 7.57902 4.71967 7.71967C4.57902 7.86032 4.5 8.05109 4.5 8.25C4.5 8.44891 4.57902 8.63968 4.71967 8.78033C4.86032 8.92098 5.05109 9 5.25 9H7.5V11.25C7.5 11.4489 7.57902 11.6397 7.71967 11.7803C7.86032 11.921 8.05109 12 8.25 12C8.44891 12 8.63968 11.921 8.78033 11.7803C8.92098 11.6397 9 11.4489 9 11.25V9H11.25C11.4489 9 11.6397 8.92098 11.7803 8.78033C11.921 8.63968 12 8.44891 12 8.25C12 8.05109 11.921 7.86032 11.7803 7.71967C11.6397 7.57902 11.4489 7.5 11.25 7.5H9V5.25ZM21 6H16.1895C16.0424 5.48196 15.845 4.97956 15.6 4.5H21C22.1935 4.5 23.3381 4.97411 24.182 5.81802C25.0259 6.66193 25.5 7.80653 25.5 9V21C25.5 22.1935 25.0259 23.3381 24.182 24.182C23.3381 25.0259 22.1935 25.5 21 25.5H9C7.80653 25.5 6.66193 25.0259 5.81802 24.182C4.97411 23.3381 4.5 22.1935 4.5 21V15.6C4.976 15.844 5.476 16.0405 6 16.1895V21C6 21.5595 6.153 22.083 6.42 22.53L13.4235 15.648C13.8442 15.2348 14.4103 15.0034 15 15.0034C15.5897 15.0034 16.1558 15.2348 16.5765 15.648L23.5815 22.53C23.8557 22.0668 24.0003 21.5383 24 21V9C24 8.20435 23.6839 7.44129 23.1213 6.87868C22.5587 6.31607 21.7956 6 21 6ZM21 11.25C21 11.5455 20.9418 11.8381 20.8287 12.111C20.7157 12.384 20.5499 12.6321 20.341 12.841C20.1321 13.0499 19.884 13.2157 19.611 13.3287C19.3381 13.4418 19.0455 13.5 18.75 13.5C18.4545 13.5 18.1619 13.4418 17.889 13.3287C17.616 13.2157 17.3679 13.0499 17.159 12.841C16.9501 12.6321 16.7843 12.384 16.6713 12.111C16.5582 11.8381 16.5 11.5455 16.5 11.25C16.5 10.6533 16.7371 10.081 17.159 9.65901C17.581 9.23705 18.1533 9 18.75 9C19.3467 9 19.919 9.23705 20.341 9.65901C20.7629 10.081 21 10.6533 21 11.25ZM19.5 11.25C19.5 11.0511 19.421 10.8603 19.2803 10.7197C19.1397 10.579 18.9489 10.5 18.75 10.5C18.5511 10.5 18.3603 10.579 18.2197 10.7197C18.079 10.8603 18 11.0511 18 11.25C18 11.4489 18.079 11.6397 18.2197 11.7803C18.3603 11.921 18.5511 12 18.75 12C18.9489 12 19.1397 11.921 19.2803 11.7803C19.421 11.6397 19.5 11.4489 19.5 11.25ZM7.482 23.589C7.94245 23.8585 8.46645 24.0004 9 24H21C21.555 24 22.0725 23.85 22.518 23.589L15.525 16.719C15.3848 16.5816 15.1963 16.5046 15 16.5046C14.8037 16.5046 14.6152 16.5816 14.475 16.719L7.482 23.589Z" fill="url(#paint0_linear_1585_488)"/>
<defs>
<linearGradient id="paint0_linear_1585_488" x1="1.5" y1="13.5" x2="25.5" y2="13.5" gradientUnits="userSpaceOnUse">
<stop stop-color="#FF6900"/>
<stop offset="0.5" stop-color="#FB2C36"/>
<stop offset="1" stop-color="#F6339A"/>
</linearGradient>
</defs>
</svg>
