<svg width="23" height="23" viewBox="0 0 23 23" fill="none" xmlns="http://www.w3.org/2000/svg">
<g clip-path="url(#clip0_373_282)">
<path d="M10.8935 0.062891C10.3365 0.24707 10.4443 0.143751 5.35468 5.22441C2.67733 7.89727 0.422255 10.1883 0.336904 10.3141C-0.00450258 10.8217 -0.103331 11.5943 0.0898334 12.1783C0.381826 13.0453 1.07362 13.5574 2.0664 13.6383L2.42128 13.6697L2.43476 17.3354C2.44823 20.9291 2.45272 21.0055 2.54257 21.248C2.87948 22.1375 3.44101 22.6855 4.26308 22.9281C4.47421 22.991 4.81112 23 6.6664 23C8.74179 23 8.83163 22.9955 8.97538 22.9102C9.05624 22.8607 9.15956 22.7574 9.20897 22.6766C9.29433 22.5328 9.29882 22.443 9.29882 19.6758C9.29882 17.7307 9.31679 16.7648 9.34823 16.6436C9.4246 16.374 9.63573 16.1 9.87382 15.9607L10.085 15.835H11.5045H12.924L13.1441 15.9697C13.3912 16.1225 13.6248 16.4684 13.6742 16.7424C13.6877 16.8367 13.7012 18.1709 13.7012 19.7117C13.7012 22.7439 13.6922 22.6271 13.9482 22.8652L14.0695 22.9775L16.2303 22.991C17.6767 23 18.4719 22.9865 18.6291 22.9551C19.249 22.8248 19.9678 22.2768 20.2508 21.7197C20.5652 21.0908 20.5473 21.3469 20.5652 17.3129L20.5787 13.6652L20.9471 13.6338C21.85 13.5574 22.443 13.1621 22.8158 12.3984C22.973 12.066 22.9775 12.0525 22.9775 11.5C22.9775 10.943 22.9775 10.934 22.8068 10.5791C22.6361 10.2197 22.6316 10.2152 17.7082 5.2918C12.7803 0.363867 12.7803 0.363867 12.4209 0.193165C12.0795 0.0314465 12.0346 0.0224609 11.5674 0.0134773C11.2484 0.00449181 11.0103 0.0224609 10.8935 0.062891Z" fill="#808080"/>
</g>
<defs>
<clipPath id="clip0_373_282">
<rect width="23" height="23" fill="white"/>
</clipPath>
</defs>
</svg>
