<svg width="40" height="40" viewBox="0 0 40 40" fill="none" xmlns="http://www.w3.org/2000/svg">
<path d="M25.0001 3.33301H10.0001C9.11603 3.33301 8.26818 3.6842 7.64306 4.30932C7.01794 4.93444 6.66675 5.78229 6.66675 6.66634V33.333C6.66675 34.2171 7.01794 35.0649 7.64306 35.69C8.26818 36.3152 9.11603 36.6663 10.0001 36.6663H30.0001C30.8841 36.6663 31.732 36.3152 32.3571 35.69C32.9822 35.0649 33.3334 34.2171 33.3334 33.333V11.6663L25.0001 3.33301Z" stroke="url(#paint0_linear_1562_422)" stroke-linecap="round" stroke-linejoin="round"/>
<path d="M23.3333 3.33301V9.99967C23.3333 10.8837 23.6844 11.7316 24.3096 12.3567C24.9347 12.9818 25.7825 13.333 26.6666 13.333H33.3333" stroke="url(#paint1_linear_1562_422)" stroke-linecap="round" stroke-linejoin="round"/>
<path d="M20 20V30" stroke="url(#paint2_linear_1562_422)" stroke-linecap="round" stroke-linejoin="round"/>
<path d="M25 25L20 20L15 25" stroke="url(#paint3_linear_1562_422)" stroke-linecap="round" stroke-linejoin="round"/>
<defs>
<linearGradient id="paint0_linear_1562_422" x1="6.66675" y1="19.9997" x2="33.3334" y2="19.9997" gradientUnits="userSpaceOnUse">
<stop stop-color="#00D095"/>
<stop offset="0.288462" stop-color="#01CF96"/>
<stop offset="0.528846" stop-color="#02CD99"/>
<stop offset="0.764423" stop-color="#01C79D"/>
<stop offset="1" stop-color="#00C2A2"/>
</linearGradient>
<linearGradient id="paint1_linear_1562_422" x1="23.3333" y1="8.33301" x2="33.3333" y2="8.33301" gradientUnits="userSpaceOnUse">
<stop stop-color="#00D095"/>
<stop offset="0.288462" stop-color="#01CF96"/>
<stop offset="0.528846" stop-color="#02CD99"/>
<stop offset="0.764423" stop-color="#01C79D"/>
<stop offset="1" stop-color="#00C2A2"/>
</linearGradient>
<linearGradient id="paint2_linear_1562_422" x1="20" y1="25" x2="21" y2="25" gradientUnits="userSpaceOnUse">
<stop stop-color="#00D095"/>
<stop offset="0.288462" stop-color="#01CF96"/>
<stop offset="0.528846" stop-color="#02CD99"/>
<stop offset="0.764423" stop-color="#01C79D"/>
<stop offset="1" stop-color="#00C2A2"/>
</linearGradient>
<linearGradient id="paint3_linear_1562_422" x1="15" y1="22.5" x2="25" y2="22.5" gradientUnits="userSpaceOnUse">
<stop stop-color="#00D095"/>
<stop offset="0.288462" stop-color="#01CF96"/>
<stop offset="0.528846" stop-color="#02CD99"/>
<stop offset="0.764423" stop-color="#01C79D"/>
<stop offset="1" stop-color="#00C2A2"/>
</linearGradient>
</defs>
</svg>
