<svg width="23" height="23" viewBox="0 0 23 23" fill="none" xmlns="http://www.w3.org/2000/svg">
<path d="M10.3994 0.089716C9.29877 0.314325 8.33295 0.830927 7.5558 1.61257C7.08412 2.08425 6.76068 2.54245 6.46869 3.15788C6.08236 3.96198 5.92963 4.65827 5.92963 5.58815C5.92963 7.9735 7.45248 10.0893 9.71205 10.8485C11.774 11.5358 14.0156 10.9923 15.5204 9.42897C16.5357 8.37331 17.0703 7.04811 17.0703 5.57468C17.0703 4.03835 16.4997 2.65475 15.4261 1.59011C14.631 0.799481 13.6203 0.278388 12.4927 0.067255C11.9671 -0.0270805 10.9249 -0.0180969 10.3994 0.089716Z" fill="#808080"/>
<path d="M5.66015 11.738C5.20195 11.8953 4.95488 12.066 4.46972 12.5511C3.22538 13.8044 2.34491 15.3453 1.91366 17.0298C1.65312 18.0361 1.59921 18.5437 1.59921 19.9453C1.59472 21.1267 1.59921 21.1941 1.69804 21.4726C1.96757 22.2273 2.59648 22.7978 3.32421 22.9505C3.50839 22.991 5.57929 22.9999 11.6572 22.991L19.7432 22.9775L20.0891 22.8113C20.682 22.5283 21.1447 22.0072 21.3199 21.4187C21.3963 21.1716 21.4053 20.9919 21.4008 19.9228C21.4008 18.5751 21.3424 18.0406 21.1088 17.1152C20.709 15.516 19.9498 14.1054 18.8088 12.8341C18.0002 11.9312 17.4611 11.6347 16.6391 11.6347C16.1943 11.6347 15.8125 11.7425 15.4307 11.9761C14.7883 12.3669 14.1279 12.6544 13.499 12.8251C11.4506 13.3732 9.44257 13.0902 7.59179 11.9986C7.38066 11.8728 7.08866 11.7425 6.94042 11.7021C6.5496 11.6033 6.01503 11.6167 5.66015 11.738Z" fill="#808080"/>
</svg>
